<?xml version="1.0" encoding="UTF-8"?>
<svg version="1.1" xmlns="http://www.w3.org/2000/svg" width="512" height="512">
<path d="M0 0 C0.91297852 0.16628906 1.82595703 0.33257812 2.76660156 0.50390625 C44.3986228 8.16363077 83.16052206 26.40624883 116 53 C116.54446777 53.44005371 117.08893555 53.88010742 117.64990234 54.33349609 C131.72173929 65.81174863 144.93680647 78.57719064 156 93 C156.75925781 93.93070312 157.51851563 94.86140625 158.30078125 95.8203125 C184.1596216 128.07168914 200.62794761 167.52514646 208 208 C208.16371094 208.83563477 208.32742188 209.67126953 208.49609375 210.53222656 C213.78656862 238.24163521 213.41678597 270.35093304 208 298 C207.83371094 298.91297852 207.66742188 299.82595703 207.49609375 300.76660156 C199.83636923 342.3986228 181.59375117 381.16052206 155 414 C154.55994629 414.54446777 154.11989258 415.08893555 153.66650391 415.64990234 C142.18825137 429.72173929 129.42280936 442.93680647 115 454 C114.06929688 454.75925781 113.13859375 455.51851563 112.1796875 456.30078125 C79.92831086 482.1596216 40.47485354 498.62794761 0 506 C-0.83563477 506.16371094 -1.67126953 506.32742188 -2.53222656 506.49609375 C-30.24163521 511.78656862 -62.35093304 511.41678597 -90 506 C-90.91297852 505.83371094 -91.82595703 505.66742188 -92.76660156 505.49609375 C-134.3986228 497.83636923 -173.16052206 479.59375117 -206 453 C-206.54446777 452.55994629 -207.08893555 452.11989258 -207.64990234 451.66650391 C-221.72173929 440.18825137 -234.93680647 427.42280936 -246 413 C-246.75925781 412.06929688 -247.51851562 411.13859375 -248.30078125 410.1796875 C-274.1596216 377.92831086 -290.62794761 338.47485354 -298 298 C-298.16371094 297.16436523 -298.32742188 296.32873047 -298.49609375 295.46777344 C-303.78656862 267.75836479 -303.41678597 235.64906696 -298 208 C-297.83371094 207.08702148 -297.66742188 206.17404297 -297.49609375 205.23339844 C-289.83636923 163.6013772 -271.59375117 124.83947794 -245 92 C-244.55994629 91.45553223 -244.11989258 90.91106445 -243.66650391 90.35009766 C-232.18825137 76.27826071 -219.42280936 63.06319353 -205 52 C-204.06929688 51.24074219 -203.13859375 50.48148438 -202.1796875 49.69921875 C-169.92831086 23.8403784 -130.47485354 7.37205239 -90 0 C-89.16436523 -0.16371094 -88.32873047 -0.32742188 -87.46777344 -0.49609375 C-59.75836479 -5.78656862 -27.64906696 -5.41678597 0 0 Z M-73.5 24.125 C-74.50063477 24.25551758 -75.50126953 24.38603516 -76.53222656 24.52050781 C-129.92228118 32.01006135 -184.76801663 59.4352312 -219 102 C-219.88494646 103.06159006 -220.77041509 104.12274493 -221.65625 105.18359375 C-261.81149377 153.74879651 -279.61534759 214.08872847 -274.53125 276.62890625 C-268.9654935 331.78777944 -241.41608946 389.41560345 -198.21484375 425.21875 C-197.48394531 425.8065625 -196.75304687 426.394375 -196 427 C-194.93840994 427.88494646 -193.87725507 428.77041509 -192.81640625 429.65625 C-158.47613383 458.04987201 -117.71717882 476.06451152 -73.5 481.875 C-72.14152954 482.05554932 -72.14152954 482.05554932 -70.75561523 482.23974609 C-62.05430008 483.24563341 -53.92825971 483 -45 483 C-45 331.2 -45 179.4 -45 23 C-59.35483886 22.92590677 -59.35483886 22.92590677 -73.5 24.125 Z " fill="#000000" transform="translate(301,3)"/>
</svg>
